<svg width="22" height="18" viewBox="0 0 22 18" fill="none" xmlns="http://www.w3.org/2000/svg">
<path d="M21.9458 2.11621C21.1388 2.47383 20.2718 2.71546 19.3604 2.82467C20.3008 2.26196 21.0044 1.37631 21.3398 0.332984C20.4562 0.857794 19.4892 1.2272 18.4808 1.42515C17.8027 0.701098 16.9045 0.221183 15.9257 0.0599169C14.9468 -0.101349 13.9421 0.0650563 13.0676 0.533298C12.193 1.00154 11.4975 1.74542 11.089 2.64945C10.6806 3.55347 10.582 4.56707 10.8086 5.53286C9.01829 5.44297 7.2669 4.97764 5.66808 4.16708C4.06926 3.35651 2.65874 2.21882 1.52807 0.827842C1.14146 1.49474 0.919161 2.26796 0.919161 3.09143C0.918729 3.83275 1.10128 4.56271 1.45063 5.21655C1.79997 5.87039 2.30531 6.42789 2.92179 6.8396C2.20683 6.81685 1.50765 6.62366 0.882433 6.27611V6.3341C0.882361 7.37383 1.24201 8.38156 1.90036 9.1863C2.5587 9.99104 3.47519 10.5432 4.49432 10.7492C3.83108 10.9287 3.13572 10.9551 2.46076 10.8265C2.7483 11.7211 3.30839 12.5034 4.06264 13.0639C4.81688 13.6244 5.72752 13.935 6.66705 13.9522C5.07214 15.2043 3.10242 15.8834 1.07477 15.8804C0.715593 15.8805 0.35672 15.8595 0 15.8176C2.05818 17.1409 4.45405 17.8433 6.90095 17.8405C15.184 17.8405 19.7122 10.9802 19.7122 5.03027C19.7122 4.83697 19.7073 4.64173 19.6986 4.44843C20.5794 3.81146 21.3397 3.02271 21.9439 2.11911L21.9458 2.11621V2.11621Z" fill="white"/>
</svg>
