<svg width="123" height="139" viewBox="0 0 123 139" fill="none" xmlns="http://www.w3.org/2000/svg">
<path d="M20.611 43.4268L61.4579 16.3872L14.4556 39.8884C13.0002 40.6161 12.1992 42.2166 12.4891 43.8177L18.9697 79.6168V46.4816C18.9697 45.2525 19.5861 44.1053 20.611 43.4268Z" fill="url(#paint0_linear_652_169)"/>
<path d="M101.389 43.4268L60.5421 16.3872L107.544 39.8884C109 40.6161 109.801 42.2166 109.511 43.8177L103.03 79.6168V46.4816C103.03 45.2525 102.414 44.1053 101.389 43.4268Z" fill="url(#paint1_linear_652_169)"/>
<g filter="url(#filter0_d_652_169)">
<path d="M58.2964 28.769L29.8261 49.5446C28.4084 50.5792 27.5701 52.2286 27.5701 53.9837V80.2691C27.5701 81.9811 28.3679 83.5952 29.7279 84.6349L58.1204 106.34C60.0905 107.846 62.8253 107.846 64.7954 106.34L93.188 84.6349C94.548 83.5952 95.3458 81.9811 95.3458 80.2691V52.8863C95.3458 51.0865 94.4645 49.4008 92.9866 48.3737L64.6718 28.6955C62.7482 27.3586 60.1886 27.3882 58.2964 28.769Z" fill="url(#paint2_linear_652_169)"/>
<path d="M58.2964 28.769L29.8261 49.5446C28.4084 50.5792 27.5701 52.2286 27.5701 53.9837V80.2691C27.5701 81.9811 28.3679 83.5952 29.7279 84.6349L58.1204 106.34C60.0905 107.846 62.8253 107.846 64.7954 106.34L93.188 84.6349C94.548 83.5952 95.3458 81.9811 95.3458 80.2691V52.8863C95.3458 51.0865 94.4645 49.4008 92.9866 48.3737L64.6718 28.6955C62.7482 27.3586 60.1886 27.3882 58.2964 28.769Z" stroke="#816463" stroke-width="3.66355"/>
</g>
<g filter="url(#filter1_d_652_169)">
<path d="M75 61.856V55.7518V52H71.3096H46V52.24V55.7518V65.0244V68.7799H49.6904H51.7099V75.3715H55.3785V68.7799V65.0244V64.6809L59.4648 69.9505H61.4299L65.5162 64.6809V65.0244V68.7799V75.3715H69.1884V68.7799H71.3096V78.2482H49.6904V72.144H46V78.2482V82H49.6904H71.3096H75V78.2482V68.7799V65.4638V65.0244H69.1884V58.9165H65.6905L60.4383 65.726L55.2042 58.9165H51.7099V65.0244H49.6904V55.7518H71.3096V61.856H75Z" fill="#391812"/>
</g>
<g filter="url(#filter2_di_652_169)">
<path d="M60.1804 5.2456L57.2738 10.9291L50.7709 11.8435C49.6047 12.0066 49.1373 13.3931 49.983 14.1873L54.6878 18.6088L53.575 24.8546C53.3747 25.9836 54.6077 26.8293 55.6403 26.3013L61.4578 23.3522L67.2753 26.3013C68.308 26.825 69.5409 25.9836 69.3406 24.8546L68.2278 18.6088L72.9326 14.1873C73.7783 13.3931 73.3109 12.0066 72.1447 11.8435L65.6418 10.9291L62.7353 5.2456C62.2145 4.23252 60.7056 4.21965 60.1804 5.2456Z" fill="url(#paint3_linear_652_169)"/>
</g>
<g filter="url(#filter3_di_652_169)">
<path d="M19.5874 7.25439L19.912 13.6297L14.7375 17.6731C13.8091 18.3974 14.0976 19.8319 15.2271 20.0968L21.5123 21.5735L23.6715 27.539C24.0625 28.6168 25.5531 28.7327 26.1834 27.7592L29.747 22.2964L36.2596 21.9417C37.4158 21.8789 38.0628 20.5338 37.3249 19.6562L33.2383 14.8035L35.102 8.62201C35.4373 7.5114 34.3393 6.5443 33.2478 6.98612L27.1589 9.44576L21.8 5.97694C20.8425 5.35998 19.5293 6.10328 19.5874 7.25439Z" fill="url(#paint4_linear_652_169)"/>
</g>
<g filter="url(#filter4_di_652_169)">
<path d="M100.813 5.97675L95.4546 9.44556L89.3657 6.98593C88.2742 6.54411 87.1762 7.51121 87.5115 8.62181L89.3752 14.8033L85.2886 19.656C84.5506 20.5336 85.1955 21.8824 86.3538 21.9415L92.8665 22.2962L96.43 27.759C97.0625 28.7288 98.5509 28.6167 98.9419 27.5388L101.101 21.5733L107.386 20.0966C108.516 19.8317 108.804 18.3972 107.876 17.6729L102.701 13.6295L103.026 7.2542C103.082 6.11646 101.781 5.35086 100.813 5.97675Z" fill="url(#paint5_linear_652_169)"/>
</g>
<defs>
<filter id="filter0_d_652_169" x="0.738281" y="4.88086" width="121.439" height="133.421" filterUnits="userSpaceOnUse" color-interpolation-filters="sRGB">
<feFlood flood-opacity="0" result="BackgroundImageFix"/>
<feColorMatrix in="SourceAlpha" type="matrix" values="0 0 0 0 0 0 0 0 0 0 0 0 0 0 0 0 0 0 127 0" result="hardAlpha"/>
<feOffset dy="4"/>
<feGaussianBlur stdDeviation="12.5"/>
<feComposite in2="hardAlpha" operator="out"/>
<feColorMatrix type="matrix" values="0 0 0 0 0 0 0 0 0 0 0 0 0 0 0 0 0 0 0.84 0"/>
<feBlend mode="normal" in2="BackgroundImageFix" result="effect1_dropShadow_652_169"/>
<feBlend mode="normal" in="SourceGraphic" in2="effect1_dropShadow_652_169" result="shape"/>
</filter>
<filter id="filter1_d_652_169" x="46" y="52" width="29" height="31.8318" filterUnits="userSpaceOnUse" color-interpolation-filters="sRGB">
<feFlood flood-opacity="0" result="BackgroundImageFix"/>
<feColorMatrix in="SourceAlpha" type="matrix" values="0 0 0 0 0 0 0 0 0 0 0 0 0 0 0 0 0 0 127 0" result="hardAlpha"/>
<feOffset dy="1.83178"/>
<feComposite in2="hardAlpha" operator="out"/>
<feColorMatrix type="matrix" values="0 0 0 0 0.596078 0 0 0 0 0.380392 0 0 0 0 0.337255 0 0 0 0.35 0"/>
<feBlend mode="normal" in2="BackgroundImageFix" result="effect1_dropShadow_652_169"/>
<feBlend mode="normal" in="SourceGraphic" in2="effect1_dropShadow_652_169" result="shape"/>
</filter>
<filter id="filter2_di_652_169" x="42.2242" y="4.48096" width="38.4672" height="40.2992" filterUnits="userSpaceOnUse" color-interpolation-filters="sRGB">
<feFlood flood-opacity="0" result="BackgroundImageFix"/>
<feColorMatrix in="SourceAlpha" type="matrix" values="0 0 0 0 0 0 0 0 0 0 0 0 0 0 0 0 0 0 127 0" result="hardAlpha"/>
<feOffset dy="10.9907"/>
<feGaussianBlur stdDeviation="3.66355"/>
<feComposite in2="hardAlpha" operator="out"/>
<feColorMatrix type="matrix" values="0 0 0 0 0 0 0 0 0 0 0 0 0 0 0 0 0 0 0.55 0"/>
<feBlend mode="normal" in2="BackgroundImageFix" result="effect1_dropShadow_652_169"/>
<feBlend mode="normal" in="SourceGraphic" in2="effect1_dropShadow_652_169" result="shape"/>
<feColorMatrix in="SourceAlpha" type="matrix" values="0 0 0 0 0 0 0 0 0 0 0 0 0 0 0 0 0 0 127 0" result="hardAlpha"/>
<feOffset dy="3.66355"/>
<feGaussianBlur stdDeviation="0.915888"/>
<feComposite in2="hardAlpha" operator="arithmetic" k2="-1" k3="1"/>
<feColorMatrix type="matrix" values="0 0 0 0 0.909804 0 0 0 0 0.00784314 0 0 0 0 0.176471 0 0 0 1 0"/>
<feBlend mode="normal" in2="shape" result="effect2_innerShadow_652_169"/>
</filter>
<filter id="filter3_di_652_169" x="6.85625" y="5.75439" width="38.1098" height="40.9867" filterUnits="userSpaceOnUse" color-interpolation-filters="sRGB">
<feFlood flood-opacity="0" result="BackgroundImageFix"/>
<feColorMatrix in="SourceAlpha" type="matrix" values="0 0 0 0 0 0 0 0 0 0 0 0 0 0 0 0 0 0 127 0" result="hardAlpha"/>
<feOffset dy="10.9907"/>
<feGaussianBlur stdDeviation="3.66355"/>
<feComposite in2="hardAlpha" operator="out"/>
<feColorMatrix type="matrix" values="0 0 0 0 0 0 0 0 0 0 0 0 0 0 0 0 0 0 0.55 0"/>
<feBlend mode="normal" in2="BackgroundImageFix" result="effect1_dropShadow_652_169"/>
<feBlend mode="normal" in="SourceGraphic" in2="effect1_dropShadow_652_169" result="shape"/>
<feColorMatrix in="SourceAlpha" type="matrix" values="0 0 0 0 0 0 0 0 0 0 0 0 0 0 0 0 0 0 127 0" result="hardAlpha"/>
<feOffset dy="3.66355"/>
<feGaussianBlur stdDeviation="0.915888"/>
<feComposite in2="hardAlpha" operator="arithmetic" k2="-1" k3="1"/>
<feColorMatrix type="matrix" values="0 0 0 0 0.909804 0 0 0 0 0.00784314 0 0 0 0 0.176471 0 0 0 1 0"/>
<feBlend mode="normal" in2="shape" result="effect2_innerShadow_652_169"/>
</filter>
<filter id="filter4_di_652_169" x="77.647" y="5.75244" width="38.1103" height="40.9872" filterUnits="userSpaceOnUse" color-interpolation-filters="sRGB">
<feFlood flood-opacity="0" result="BackgroundImageFix"/>
<feColorMatrix in="SourceAlpha" type="matrix" values="0 0 0 0 0 0 0 0 0 0 0 0 0 0 0 0 0 0 127 0" result="hardAlpha"/>
<feOffset dy="10.9907"/>
<feGaussianBlur stdDeviation="3.66355"/>
<feComposite in2="hardAlpha" operator="out"/>
<feColorMatrix type="matrix" values="0 0 0 0 0 0 0 0 0 0 0 0 0 0 0 0 0 0 0.55 0"/>
<feBlend mode="normal" in2="BackgroundImageFix" result="effect1_dropShadow_652_169"/>
<feBlend mode="normal" in="SourceGraphic" in2="effect1_dropShadow_652_169" result="shape"/>
<feColorMatrix in="SourceAlpha" type="matrix" values="0 0 0 0 0 0 0 0 0 0 0 0 0 0 0 0 0 0 127 0" result="hardAlpha"/>
<feOffset dy="3.66355"/>
<feGaussianBlur stdDeviation="0.915888"/>
<feComposite in2="hardAlpha" operator="arithmetic" k2="-1" k3="1"/>
<feColorMatrix type="matrix" values="0 0 0 0 0.909804 0 0 0 0 0.00784314 0 0 0 0 0.176471 0 0 0 1 0"/>
<feBlend mode="normal" in2="shape" result="effect2_innerShadow_652_169"/>
</filter>
<linearGradient id="paint0_linear_652_169" x1="52.9022" y1="18.8684" x2="35.7226" y2="77.9915" gradientUnits="userSpaceOnUse">
<stop stop-color="#CA0329"/>
<stop offset="1" stop-color="#94150E"/>
</linearGradient>
<linearGradient id="paint1_linear_652_169" x1="69.0978" y1="18.8684" x2="86.2774" y2="77.9915" gradientUnits="userSpaceOnUse">
<stop stop-color="#CA0329"/>
<stop offset="1" stop-color="#94150E"/>
</linearGradient>
<linearGradient id="paint2_linear_652_169" x1="61.4579" y1="26.4619" x2="61.4579" y2="108.892" gradientUnits="userSpaceOnUse">
<stop stop-color="#5B2B30"/>
<stop offset="0.572917" stop-color="#6B3935"/>
<stop offset="0.984375" stop-color="#A25B48"/>
</linearGradient>
<linearGradient id="paint3_linear_652_169" x1="61.4578" y1="4.48096" x2="61.4578" y2="26.4623" gradientUnits="userSpaceOnUse">
<stop stop-color="#D50224"/>
<stop offset="1" stop-color="#B60024"/>
</linearGradient>
<linearGradient id="paint4_linear_652_169" x1="20.3114" y1="5.95347" x2="31.302" y2="24.9898" gradientUnits="userSpaceOnUse">
<stop stop-color="#D50224"/>
<stop offset="1" stop-color="#B60024"/>
</linearGradient>
<linearGradient id="paint5_linear_652_169" x1="102.302" y1="5.95327" x2="91.3114" y2="24.9896" gradientUnits="userSpaceOnUse">
<stop stop-color="#D50224"/>
<stop offset="1" stop-color="#B60024"/>
</linearGradient>
</defs>
</svg>
