<svg width="123" height="135" viewBox="0 0 123 135" fill="none" xmlns="http://www.w3.org/2000/svg">
<path d="M20.611 39.4273L61.4579 12.3877L14.4556 35.8889C13.0002 36.6166 12.1992 38.2171 12.4891 39.8182L18.9697 75.6173V42.4821C18.9697 41.253 19.5861 40.1057 20.611 39.4273Z" fill="url(#paint0_linear_652_155)"/>
<path d="M101.389 39.4273L60.5421 12.3877L107.544 35.8889C109 36.6166 109.801 38.2171 109.511 39.8182L103.03 75.6173V42.4821C103.03 41.253 102.414 40.1057 101.389 39.4273Z" fill="url(#paint1_linear_652_155)"/>
<g filter="url(#filter0_d_652_155)">
<path d="M58.2964 24.7695L29.8261 45.5451C28.4084 46.5796 27.5701 48.2291 27.5701 49.9842V76.2696C27.5701 77.9815 28.3679 79.5957 29.7279 80.6354L58.1204 102.341C60.0905 103.847 62.8253 103.847 64.7954 102.341L93.188 80.6354C94.548 79.5957 95.3458 77.9815 95.3458 76.2696V48.8868C95.3458 47.087 94.4645 45.4013 92.9866 44.3742L64.6718 24.696C62.7482 23.3591 60.1886 23.3886 58.2964 24.7695Z" fill="url(#paint2_linear_652_155)"/>
<path d="M58.2964 24.7695L29.8261 45.5451C28.4084 46.5796 27.5701 48.2291 27.5701 49.9842V76.2696C27.5701 77.9815 28.3679 79.5957 29.7279 80.6354L58.1204 102.341C60.0905 103.847 62.8253 103.847 64.7954 102.341L93.188 80.6354C94.548 79.5957 95.3458 77.9815 95.3458 76.2696V48.8868C95.3458 47.087 94.4645 45.4013 92.9866 44.3742L64.6718 24.696C62.7482 23.3591 60.1886 23.3886 58.2964 24.7695Z" stroke="#816463" stroke-width="3.66355"/>
</g>
<g filter="url(#filter1_d_652_155)">
<path d="M76 57.856V51.7518V48H72.3096H47V48.24V51.7518V61.0244V64.7799H50.6904H52.7099V71.3715H56.3785V64.7799V61.0244V60.6809L60.4648 65.9505H62.4299L66.5162 60.6809V61.0244V64.7799V71.3715H70.1884V64.7799H72.3096V74.2482H50.6904V68.144H47V74.2482V78H50.6904H72.3096H76V74.2482V64.7799V61.4638V61.0244H70.1884V54.9165H66.6905L61.4383 61.726L56.2042 54.9165H52.7099V61.0244H50.6904V51.7518H72.3096V57.856H76Z" fill="#391812"/>
</g>
<g filter="url(#filter2_di_652_155)">
<path d="M60.1806 1.2456L57.2741 6.92913L50.7711 7.84347C49.6049 8.00659 49.1376 9.39313 49.9833 10.1873L54.688 14.6088L53.5753 20.8546C53.375 21.9836 54.6079 22.8293 55.6406 22.3013L61.4581 19.3522L67.2756 22.3013C68.3082 22.825 69.5411 21.9836 69.3408 20.8546L68.2281 14.6088L72.9328 10.1873C73.7785 9.39313 73.3112 8.00659 72.145 7.84347L65.642 6.92913L62.7355 1.2456C62.2147 0.232525 60.7058 0.219647 60.1806 1.2456Z" fill="url(#paint3_linear_652_155)"/>
</g>
<defs>
<filter id="filter0_d_652_155" x="0.738281" y="0.881348" width="121.439" height="133.421" filterUnits="userSpaceOnUse" color-interpolation-filters="sRGB">
<feFlood flood-opacity="0" result="BackgroundImageFix"/>
<feColorMatrix in="SourceAlpha" type="matrix" values="0 0 0 0 0 0 0 0 0 0 0 0 0 0 0 0 0 0 127 0" result="hardAlpha"/>
<feOffset dy="4"/>
<feGaussianBlur stdDeviation="12.5"/>
<feComposite in2="hardAlpha" operator="out"/>
<feColorMatrix type="matrix" values="0 0 0 0 0 0 0 0 0 0 0 0 0 0 0 0 0 0 0.84 0"/>
<feBlend mode="normal" in2="BackgroundImageFix" result="effect1_dropShadow_652_155"/>
<feBlend mode="normal" in="SourceGraphic" in2="effect1_dropShadow_652_155" result="shape"/>
</filter>
<filter id="filter1_d_652_155" x="47" y="48" width="29" height="31.8318" filterUnits="userSpaceOnUse" color-interpolation-filters="sRGB">
<feFlood flood-opacity="0" result="BackgroundImageFix"/>
<feColorMatrix in="SourceAlpha" type="matrix" values="0 0 0 0 0 0 0 0 0 0 0 0 0 0 0 0 0 0 127 0" result="hardAlpha"/>
<feOffset dy="1.83178"/>
<feComposite in2="hardAlpha" operator="out"/>
<feColorMatrix type="matrix" values="0 0 0 0 0.596078 0 0 0 0 0.380392 0 0 0 0 0.337255 0 0 0 0.35 0"/>
<feBlend mode="normal" in2="BackgroundImageFix" result="effect1_dropShadow_652_155"/>
<feBlend mode="normal" in="SourceGraphic" in2="effect1_dropShadow_652_155" result="shape"/>
</filter>
<filter id="filter2_di_652_155" x="42.2244" y="0.480957" width="38.4672" height="40.2992" filterUnits="userSpaceOnUse" color-interpolation-filters="sRGB">
<feFlood flood-opacity="0" result="BackgroundImageFix"/>
<feColorMatrix in="SourceAlpha" type="matrix" values="0 0 0 0 0 0 0 0 0 0 0 0 0 0 0 0 0 0 127 0" result="hardAlpha"/>
<feOffset dy="10.9907"/>
<feGaussianBlur stdDeviation="3.66355"/>
<feComposite in2="hardAlpha" operator="out"/>
<feColorMatrix type="matrix" values="0 0 0 0 0 0 0 0 0 0 0 0 0 0 0 0 0 0 0.55 0"/>
<feBlend mode="normal" in2="BackgroundImageFix" result="effect1_dropShadow_652_155"/>
<feBlend mode="normal" in="SourceGraphic" in2="effect1_dropShadow_652_155" result="shape"/>
<feColorMatrix in="SourceAlpha" type="matrix" values="0 0 0 0 0 0 0 0 0 0 0 0 0 0 0 0 0 0 127 0" result="hardAlpha"/>
<feOffset dy="3.66355"/>
<feGaussianBlur stdDeviation="0.915888"/>
<feComposite in2="hardAlpha" operator="arithmetic" k2="-1" k3="1"/>
<feColorMatrix type="matrix" values="0 0 0 0 0.909804 0 0 0 0 0.00784314 0 0 0 0 0.176471 0 0 0 1 0"/>
<feBlend mode="normal" in2="shape" result="effect2_innerShadow_652_155"/>
</filter>
<linearGradient id="paint0_linear_652_155" x1="52.9022" y1="14.8689" x2="35.7226" y2="73.992" gradientUnits="userSpaceOnUse">
<stop stop-color="#CA0329"/>
<stop offset="1" stop-color="#94150E"/>
</linearGradient>
<linearGradient id="paint1_linear_652_155" x1="69.0978" y1="14.8689" x2="86.2774" y2="73.992" gradientUnits="userSpaceOnUse">
<stop stop-color="#CA0329"/>
<stop offset="1" stop-color="#94150E"/>
</linearGradient>
<linearGradient id="paint2_linear_652_155" x1="61.4579" y1="22.4624" x2="61.4579" y2="104.892" gradientUnits="userSpaceOnUse">
<stop stop-color="#5B2B30"/>
<stop offset="0.572917" stop-color="#6B3935"/>
<stop offset="0.984375" stop-color="#A25B48"/>
</linearGradient>
<linearGradient id="paint3_linear_652_155" x1="61.4581" y1="0.480957" x2="61.4581" y2="22.4623" gradientUnits="userSpaceOnUse">
<stop stop-color="#D50224"/>
<stop offset="1" stop-color="#B60024"/>
</linearGradient>
</defs>
</svg>
