<svg width="123" height="139" viewBox="0 0 123 139" fill="none" xmlns="http://www.w3.org/2000/svg">
<path d="M20.611 43.4268L61.4579 16.3872L14.4556 39.8884C13.0002 40.6161 12.1992 42.2166 12.4891 43.8177L18.9697 79.6168V46.4816C18.9697 45.2525 19.5861 44.1053 20.611 43.4268Z" fill="url(#paint0_linear_652_162)"/>
<path d="M101.389 43.4268L60.5421 16.3872L107.544 39.8884C109 40.6161 109.801 42.2166 109.511 43.8177L103.03 79.6168V46.4816C103.03 45.2525 102.414 44.1053 101.389 43.4268Z" fill="url(#paint1_linear_652_162)"/>
<g filter="url(#filter0_d_652_162)">
<path d="M58.2964 28.769L29.8261 49.5446C28.4084 50.5792 27.5701 52.2286 27.5701 53.9837V80.2691C27.5701 81.9811 28.3679 83.5952 29.7279 84.6349L58.1204 106.34C60.0905 107.846 62.8253 107.846 64.7954 106.34L93.188 84.6349C94.548 83.5952 95.3458 81.9811 95.3458 80.2691V52.8863C95.3458 51.0865 94.4645 49.4008 92.9866 48.3737L64.6718 28.6955C62.7482 27.3586 60.1886 27.3882 58.2964 28.769Z" fill="url(#paint2_linear_652_162)"/>
<path d="M58.2964 28.769L29.8261 49.5446C28.4084 50.5792 27.5701 52.2286 27.5701 53.9837V80.2691C27.5701 81.9811 28.3679 83.5952 29.7279 84.6349L58.1204 106.34C60.0905 107.846 62.8253 107.846 64.7954 106.34L93.188 84.6349C94.548 83.5952 95.3458 81.9811 95.3458 80.2691V52.8863C95.3458 51.0865 94.4645 49.4008 92.9866 48.3737L64.6718 28.6955C62.7482 27.3586 60.1886 27.3882 58.2964 28.769Z" stroke="#816463" stroke-width="3.66355"/>
</g>
<g filter="url(#filter1_d_652_162)">
<path d="M75 61.856V55.7518V52H71.3096H46V52.24V55.7518V65.0244V68.7799H49.6904H51.7099V75.3715H55.3785V68.7799V65.0244V64.6809L59.4648 69.9505H61.4299L65.5162 64.6809V65.0244V68.7799V75.3715H69.1884V68.7799H71.3096V78.2482H49.6904V72.144H46V78.2482V82H49.6904H71.3096H75V78.2482V68.7799V65.4638V65.0244H69.1884V58.9165H65.6905L60.4383 65.726L55.2042 58.9165H51.7099V65.0244H49.6904V55.7518H71.3096V61.856H75Z" fill="#391812"/>
</g>
<g filter="url(#filter2_di_652_162)">
<path d="M17.687 7.25439L18.0116 13.6297L12.8371 17.6731C11.9087 18.3974 12.1972 19.8319 13.3267 20.0968L19.6119 21.5735L21.7711 27.539C22.1621 28.6168 23.6527 28.7327 24.283 27.7592L27.8466 22.2964L34.3592 21.9417C35.5154 21.8789 36.1625 20.5338 35.4245 19.6562L31.3379 14.8035L33.2016 8.62201C33.5369 7.5114 32.4389 6.5443 31.3474 6.98612L25.2585 9.44576L19.8996 5.97694C18.9421 5.35998 17.6289 6.10328 17.687 7.25439Z" fill="url(#paint3_linear_652_162)"/>
</g>
<g filter="url(#filter3_di_652_162)">
<path d="M98.9133 5.97675L93.5544 9.44556L87.4655 6.98593C86.374 6.54411 85.276 7.51121 85.6113 8.62181L87.475 14.8033L83.3884 19.656C82.6505 20.5336 83.2954 21.8824 84.4537 21.9415L90.9663 22.2962L94.5299 27.759C95.1623 28.7288 96.6508 28.6167 97.0418 27.5388L99.2011 21.5733L105.486 20.0966C106.616 19.8317 106.904 18.3972 105.976 17.6729L100.801 13.6295L101.126 7.2542C101.181 6.11646 99.8812 5.35086 98.9133 5.97675Z" fill="url(#paint4_linear_652_162)"/>
</g>
<defs>
<filter id="filter0_d_652_162" x="0.738281" y="4.88086" width="121.439" height="133.421" filterUnits="userSpaceOnUse" color-interpolation-filters="sRGB">
<feFlood flood-opacity="0" result="BackgroundImageFix"/>
<feColorMatrix in="SourceAlpha" type="matrix" values="0 0 0 0 0 0 0 0 0 0 0 0 0 0 0 0 0 0 127 0" result="hardAlpha"/>
<feOffset dy="4"/>
<feGaussianBlur stdDeviation="12.5"/>
<feComposite in2="hardAlpha" operator="out"/>
<feColorMatrix type="matrix" values="0 0 0 0 0 0 0 0 0 0 0 0 0 0 0 0 0 0 0.84 0"/>
<feBlend mode="normal" in2="BackgroundImageFix" result="effect1_dropShadow_652_162"/>
<feBlend mode="normal" in="SourceGraphic" in2="effect1_dropShadow_652_162" result="shape"/>
</filter>
<filter id="filter1_d_652_162" x="46" y="52" width="29" height="31.8318" filterUnits="userSpaceOnUse" color-interpolation-filters="sRGB">
<feFlood flood-opacity="0" result="BackgroundImageFix"/>
<feColorMatrix in="SourceAlpha" type="matrix" values="0 0 0 0 0 0 0 0 0 0 0 0 0 0 0 0 0 0 127 0" result="hardAlpha"/>
<feOffset dy="1.83178"/>
<feComposite in2="hardAlpha" operator="out"/>
<feColorMatrix type="matrix" values="0 0 0 0 0.596078 0 0 0 0 0.380392 0 0 0 0 0.337255 0 0 0 0.35 0"/>
<feBlend mode="normal" in2="BackgroundImageFix" result="effect1_dropShadow_652_162"/>
<feBlend mode="normal" in="SourceGraphic" in2="effect1_dropShadow_652_162" result="shape"/>
</filter>
<filter id="filter2_di_652_162" x="4.95586" y="5.75439" width="38.1098" height="40.9867" filterUnits="userSpaceOnUse" color-interpolation-filters="sRGB">
<feFlood flood-opacity="0" result="BackgroundImageFix"/>
<feColorMatrix in="SourceAlpha" type="matrix" values="0 0 0 0 0 0 0 0 0 0 0 0 0 0 0 0 0 0 127 0" result="hardAlpha"/>
<feOffset dy="10.9907"/>
<feGaussianBlur stdDeviation="3.66355"/>
<feComposite in2="hardAlpha" operator="out"/>
<feColorMatrix type="matrix" values="0 0 0 0 0 0 0 0 0 0 0 0 0 0 0 0 0 0 0.55 0"/>
<feBlend mode="normal" in2="BackgroundImageFix" result="effect1_dropShadow_652_162"/>
<feBlend mode="normal" in="SourceGraphic" in2="effect1_dropShadow_652_162" result="shape"/>
<feColorMatrix in="SourceAlpha" type="matrix" values="0 0 0 0 0 0 0 0 0 0 0 0 0 0 0 0 0 0 127 0" result="hardAlpha"/>
<feOffset dy="3.66355"/>
<feGaussianBlur stdDeviation="0.915888"/>
<feComposite in2="hardAlpha" operator="arithmetic" k2="-1" k3="1"/>
<feColorMatrix type="matrix" values="0 0 0 0 0.909804 0 0 0 0 0.00784314 0 0 0 0 0.176471 0 0 0 1 0"/>
<feBlend mode="normal" in2="shape" result="effect2_innerShadow_652_162"/>
</filter>
<filter id="filter3_di_652_162" x="75.7469" y="5.75244" width="38.1103" height="40.9872" filterUnits="userSpaceOnUse" color-interpolation-filters="sRGB">
<feFlood flood-opacity="0" result="BackgroundImageFix"/>
<feColorMatrix in="SourceAlpha" type="matrix" values="0 0 0 0 0 0 0 0 0 0 0 0 0 0 0 0 0 0 127 0" result="hardAlpha"/>
<feOffset dy="10.9907"/>
<feGaussianBlur stdDeviation="3.66355"/>
<feComposite in2="hardAlpha" operator="out"/>
<feColorMatrix type="matrix" values="0 0 0 0 0 0 0 0 0 0 0 0 0 0 0 0 0 0 0.55 0"/>
<feBlend mode="normal" in2="BackgroundImageFix" result="effect1_dropShadow_652_162"/>
<feBlend mode="normal" in="SourceGraphic" in2="effect1_dropShadow_652_162" result="shape"/>
<feColorMatrix in="SourceAlpha" type="matrix" values="0 0 0 0 0 0 0 0 0 0 0 0 0 0 0 0 0 0 127 0" result="hardAlpha"/>
<feOffset dy="3.66355"/>
<feGaussianBlur stdDeviation="0.915888"/>
<feComposite in2="hardAlpha" operator="arithmetic" k2="-1" k3="1"/>
<feColorMatrix type="matrix" values="0 0 0 0 0.909804 0 0 0 0 0.00784314 0 0 0 0 0.176471 0 0 0 1 0"/>
<feBlend mode="normal" in2="shape" result="effect2_innerShadow_652_162"/>
</filter>
<linearGradient id="paint0_linear_652_162" x1="52.9022" y1="18.8684" x2="35.7226" y2="77.9915" gradientUnits="userSpaceOnUse">
<stop stop-color="#CA0329"/>
<stop offset="1" stop-color="#94150E"/>
</linearGradient>
<linearGradient id="paint1_linear_652_162" x1="69.0978" y1="18.8684" x2="86.2774" y2="77.9915" gradientUnits="userSpaceOnUse">
<stop stop-color="#CA0329"/>
<stop offset="1" stop-color="#94150E"/>
</linearGradient>
<linearGradient id="paint2_linear_652_162" x1="61.4579" y1="26.4619" x2="61.4579" y2="108.892" gradientUnits="userSpaceOnUse">
<stop stop-color="#5B2B30"/>
<stop offset="0.572917" stop-color="#6B3935"/>
<stop offset="0.984375" stop-color="#A25B48"/>
</linearGradient>
<linearGradient id="paint3_linear_652_162" x1="18.411" y1="5.95347" x2="29.4016" y2="24.9898" gradientUnits="userSpaceOnUse">
<stop stop-color="#D50224"/>
<stop offset="1" stop-color="#B60024"/>
</linearGradient>
<linearGradient id="paint4_linear_652_162" x1="100.402" y1="5.95327" x2="89.4113" y2="24.9896" gradientUnits="userSpaceOnUse">
<stop stop-color="#D50224"/>
<stop offset="1" stop-color="#B60024"/>
</linearGradient>
</defs>
</svg>
