<svg width="22" height="18" viewBox="0 0 22 18" fill="none" xmlns="http://www.w3.org/2000/svg">
<path d="M22 2.20703C21.193 2.56465 20.326 2.80628 19.4146 2.91549C20.355 2.35278 21.0586 1.46713 21.394 0.423804C20.5104 0.948614 19.5434 1.31802 18.535 1.51597C17.8569 0.791918 16.9587 0.312003 15.9799 0.150737C15.001 -0.0105287 13.9963 0.155877 13.1218 0.624118C12.2472 1.09236 11.5517 1.83624 11.1432 2.74027C10.7348 3.64429 10.6362 4.65789 10.8628 5.62368C9.07249 5.53379 7.3211 5.06846 5.72228 4.2579C4.12346 3.44733 2.71294 2.30964 1.58227 0.918662C1.19566 1.58556 0.97336 2.35878 0.97336 3.18225C0.972928 3.92357 1.15548 4.65353 1.50483 5.30737C1.85417 5.96121 2.35951 6.51871 2.97599 6.93042C2.26103 6.90767 1.56185 6.71448 0.936632 6.36693V6.42493C0.93656 7.46465 1.29621 8.47238 1.95455 9.27712C2.6129 10.0819 3.52939 10.6341 4.54852 10.84C3.88528 11.0195 3.18992 11.0459 2.51496 10.9173C2.8025 11.8119 3.36259 12.5942 4.11684 13.1547C4.87108 13.7152 5.78172 14.0258 6.72125 14.043C5.12633 15.2951 3.15662 15.9742 1.12897 15.9712C0.769792 15.9713 0.410919 15.9504 0.0541992 15.9084C2.11238 17.2318 4.50825 17.9341 6.95515 17.9313C15.2382 17.9313 19.7664 11.071 19.7664 5.12109C19.7664 4.92779 19.7615 4.73255 19.7528 4.53925C20.6336 3.90228 21.3939 3.11353 21.9981 2.20993L22 2.20703Z" fill="white"/>
</svg>
