<svg xmlns="http://www.w3.org/2000/svg" xmlns:xlink="http://www.w3.org/1999/xlink" viewBox="0,0,256,256" width="35px" height="35px"><g fill="#ffffff" fill-rule="nonzero" stroke="none" stroke-width="1" stroke-linecap="butt" stroke-linejoin="miter" stroke-miterlimit="10" stroke-dasharray="" stroke-dashoffset="0" font-family="none" font-weight="none" font-size="none" text-anchor="none" style="mix-blend-mode: normal"><g transform="scale(3.55556,3.55556)"><path d="M23.38867,15.01172c-2.508,0 -5.38572,1.12594 -7.38672,3.21094c-1.736,1.809 -3.00391,4.67069 -3.00391,7.17969l0.04297,23.67578c0,2.509 1.27192,5.06684 3.04492,6.83984c1.774,1.774 4.74591,3.08594 7.25391,3.08594h23.25977c2.508,0 5.52873,-1.27192 7.30273,-3.04492c1.774,-1.773 3.08594,-4.8367 3.08594,-7.3457v-23.20898c0,-2.509 -1.31294,-5.61567 -3.08594,-7.38867c-1.774,-1.774 -4.79474,-3.00291 -7.30273,-3.00391zM28.00977,26h0.00391l7.16406,0.0293c7.854,0 9.02734,3.54039 9.02734,5.65039c0,1.173 -0.31827,2.24092 -0.94727,3.16992c-0.177,0.263 -0.39901,0.51014 -0.66602,0.74414c0.767,0.338 1.4218,0.78766 1.9668,1.34766c0.97,0.994 1.46289,2.32131 1.46289,3.94531c0,1.157 -0.23989,2.1968 -0.71289,3.0918c-0.455,0.87 -1.09072,1.61212 -1.88672,2.20313c-0.894,0.661 -1.89084,1.14178 -2.96484,1.42578c-1.054,0.276 -2.32191,0.4082 -3.87891,0.4082h-8.56836c-0.553,0 -1,-0.447 -1,-1v-20.01367c0,-0.266 0.10397,-0.52098 0.29297,-0.70898c0.188,-0.187 0.44203,-0.29297 0.70703,-0.29297zM33.61133,31.04883v3.63672h2.68555c0.989,0 1.78906,-0.81436 1.78906,-1.81836c0,-1.005 -0.80006,-1.81836 -1.78906,-1.81836zM33.58594,38.86719v4.54102l3.45117,0.00391c1.059,0 1.91602,-1.01548 1.91602,-2.27148c0,-1.255 -0.85702,-2.27344 -1.91602,-2.27344z"></path></g></g></svg>