<svg width="26" height="26" viewBox="0 0 26 26" fill="none" xmlns="http://www.w3.org/2000/svg">
<g opacity="0.4">
<path d="M24.1719 12.0352H21.0691C20.6299 8.31797 17.682 5.37012 13.9648 4.93086V1.82812C13.9648 1.71641 13.8734 1.625 13.7617 1.625H12.2383C12.1266 1.625 12.0352 1.71641 12.0352 1.82812V4.93086C8.31797 5.37012 5.37012 8.31797 4.93086 12.0352H1.82812C1.71641 12.0352 1.625 12.1266 1.625 12.2383V13.7617C1.625 13.8734 1.71641 13.9648 1.82812 13.9648H4.93086C5.37012 17.682 8.31797 20.6299 12.0352 21.0691V24.1719C12.0352 24.2836 12.1266 24.375 12.2383 24.375H13.7617C13.8734 24.375 13.9648 24.2836 13.9648 24.1719V21.0691C17.682 20.6299 20.6299 17.682 21.0691 13.9648H24.1719C24.2836 13.9648 24.375 13.8734 24.375 13.7617V12.2383C24.375 12.1266 24.2836 12.0352 24.1719 12.0352ZM13 19.1953C9.57734 19.1953 6.80469 16.4227 6.80469 13C6.80469 9.57734 9.57734 6.80469 13 6.80469C16.4227 6.80469 19.1953 9.57734 19.1953 13C19.1953 16.4227 16.4227 19.1953 13 19.1953Z" fill="#BDBBBA"/>
<path d="M13 9.95312C12.185 9.95312 11.4232 10.268 10.8469 10.8469C10.2705 11.4232 9.95312 12.185 9.95312 13C9.95312 13.815 10.2705 14.5768 10.8469 15.1531C11.4232 15.727 12.1875 16.0469 13 16.0469C13.8125 16.0469 14.5768 15.7295 15.1531 15.1531C15.727 14.5768 16.0469 13.8125 16.0469 13C16.0469 12.1875 15.7295 11.4232 15.1531 10.8469C14.5768 10.268 13.815 9.95312 13 9.95312Z" fill="#BDBBBA"/>
</g>
</svg>
